HIERARCHY
ROOT hip
{
  OFFSET 0 0 0
  CHANNELS 6 Xposition Yposition Zposition Zrotation Yrotation Xrotation
  JOINT abdomen
  {
    OFFSET 0 20.6881 -0.73152
    CHANNELS 3 Zrotation Xrotation Yrotation
    JOINT chest
    {
      OFFSET 0 11.7043 -0.48768
      CHANNELS 3 Zrotation Xrotation Yrotation
      JOINT neck
      {
        OFFSET 0 22.1894 -2.19456
        CHANNELS 3 Zrotation Xrotation Yrotation
        JOINT head
        {
          OFFSET -0.24384 7.07133 1.2192
          CHANNELS 3 Zrotation Xrotation Yrotation
          JOINT leftEye
          {
            OFFSET 4.14528 8.04674 8.04672
            CHANNELS 3 Zrotation Xrotation Yrotation
            End Site
            {
              OFFSET 1 0 0
            }
          }
          JOINT rightEye
          {
            OFFSET -3.6576 8.04674 8.04672
            CHANNELS 3 Zrotation Xrotation Yrotation
            End Site
            {
              OFFSET 1 0 0
            }
          }
        }
      }
      JOINT rCollar
      {
        OFFSET -2.68224 19.2634 -4.8768
        CHANNELS 3 Zrotation Xrotation Yrotation
        JOINT rShldr
        {
          OFFSET -8.77824 -1.95073 1.46304
          CHANNELS 3 Zrotation Xrotation Yrotation
          JOINT rForeArm
          {
            OFFSET -28.1742 -1.7115 0.48768
            CHANNELS 3 Zrotation Xrotation Yrotation
            JOINT rHand
            {
              OFFSET -22.5879 0.773209 7.07136
              CHANNELS 3 Zrotation Xrotation Yrotation
              JOINT rThumb1
              {
                OFFSET -1.2192 -0.487915 3.41376
                CHANNELS 3 Zrotation Xrotation Yrotation
                JOINT rThumb2
                {
                  OFFSET -3.37035 -0.52449 3.41376
                  CHANNELS 3 Zrotation Xrotation Yrotation
                  End Site
                  {
                    OFFSET -1.78271 -1.18214 1.43049
                  }
                }
              }
              JOINT rIndex1
              {
                OFFSET -7.75947 0.938293 5.60832
                CHANNELS 3 Zrotation Xrotation Yrotation
                JOINT rIndex2
                {
                  OFFSET -2.54057 -0.884171 1.56538
                  CHANNELS 3 Zrotation Xrotation Yrotation
                  End Site
                  {
                    OFFSET -1.62519 -0.234802 1.16502
                  }
                }
              }
              JOINT rMid1
              {
                OFFSET -8.24714 1.18213 3.41376
                CHANNELS 3 Zrotation Xrotation Yrotation
                JOINT rMid2
                {
                  OFFSET -3.10165 -0.590103 1.0647
                  CHANNELS 3 Zrotation Xrotation Yrotation
                  End Site
                  {
                    OFFSET -2.48547 -0.328903 0.83742
                  }
                }
              }
              JOINT rRing1
              {
                OFFSET -8.82822 0.546677 1.51678
                CHANNELS 3 Zrotation Xrotation Yrotation
                JOINT rRing2
                {
                  OFFSET -2.60934 -0.819778 -0.0198488
                  CHANNELS 3 Zrotation Xrotation Yrotation
                  End Site
                  {
                    OFFSET -2.33842 -0.294052 0.168128
                  }
                }
              }
              JOINT rPinky1
              {
                OFFSET -8.27202 -0.0477905 -0.4584
                CHANNELS 3 Zrotation Xrotation Yrotation
                JOINT rPinky2
                {
                  OFFSET -1.82734 -0.647385 -0.700984
                  CHANNELS 3 Zrotation Xrotation Yrotation
                  End Site
                  {
                    OFFSET -1.69225 -0.51767 -0.607171
                  }
                }
              }
            }
          }
        }
      }
      JOINT lCollar
      {
        OFFSET 2.68224 19.2634 -4.8768
        CHANNELS 3 Zrotation Xrotation Yrotation
        JOINT lShldr
        {
          OFFSET 8.77824 -1.95073 1.46304
          CHANNELS 3 Zrotation Xrotation Yrotation
          JOINT lForeArm
          {
            OFFSET 28.1742 -1.7115 0.48768
            CHANNELS 3 Zrotation Xrotation Yrotation
            JOINT lHand
            {
              OFFSET 22.5879 0.773209 7.07136
              CHANNELS 3 Zrotation Xrotation Yrotation
              JOINT lThumb1
              {
                OFFSET 1.2192 -0.487915 3.41376
                CHANNELS 3 Zrotation Xrotation Yrotation
                JOINT lThumb2
                {
                  OFFSET 3.37035 -0.52449 3.41376
                  CHANNELS 3 Zrotation Xrotation Yrotation
                  End Site
                  {
                    OFFSET 1.78271 -1.18214 1.43049
                  }
                }
              }
              JOINT lIndex1
              {
                OFFSET 7.75947 0.938293 5.60832
                CHANNELS 3 Zrotation Xrotation Yrotation
                JOINT lIndex2
                {
                  OFFSET 2.54057 -0.884171 1.56538
                  CHANNELS 3 Zrotation Xrotation Yrotation
                  End Site
                  {
                    OFFSET 1.62519 -0.234802 1.16502
                  }
                }
              }
              JOINT lMid1
              {
                OFFSET 8.24714 1.18213 3.41376
                CHANNELS 3 Zrotation Xrotation Yrotation
                JOINT lMid2
                {
                  OFFSET 3.10165 -0.590103 1.0647
                  CHANNELS 3 Zrotation Xrotation Yrotation
                  End Site
                  {
                    OFFSET 2.48547 -0.328903 0.83742
                  }
                }
              }
              JOINT lRing1
              {
                OFFSET 8.82822 0.546677 1.51678
                CHANNELS 3 Zrotation Xrotation Yrotation
                JOINT lRing2
                {
                  OFFSET 2.60934 -0.819778 -0.0198488
                  CHANNELS 3 Zrotation Xrotation Yrotation
                  End Site
                  {
                    OFFSET 2.33842 -0.294052 0.168128
                  }
                }
              }
              JOINT lPinky1
              {
                OFFSET 8.27202 -0.0477905 -0.4584
                CHANNELS 3 Zrotation Xrotation Yrotation
                JOINT lPinky2
                {
                  OFFSET 1.82734 -0.647385 -0.700984
                  CHANNELS 3 Zrotation Xrotation Yrotation
                  End Site
                  {
                    OFFSET 1.69225 -0.51767 -0.607171
                  }
                }
              }
            }
          }
        }
      }
    }
  }
  JOINT rButtock
  {
    OFFSET -8.77824 4.35084 1.2192
    CHANNELS 3 Zrotation Xrotation Yrotation
    JOINT rThigh
    {
      OFFSET 0 -1.70687 -2.19456
      CHANNELS 3 Zrotation Xrotation Yrotation
      JOINT rShin
      {
        OFFSET 0 -36.8199 0.73152
        CHANNELS 3 Zrotation Xrotation Yrotation
        JOINT rFoot
        {
          OFFSET 0.73152 -45.1104 -5.12064
          CHANNELS 3 Zrotation Xrotation Yrotation
          End Site
          {
            OFFSET -1.1221 -3.69964 12.103
          }
        }
      }
    }
  }
  JOINT lButtock
  {
    OFFSET 8.77824 4.35084 1.2192
    CHANNELS 3 Zrotation Xrotation Yrotation
    JOINT lThigh
    {
      OFFSET 0 -1.70687 -2.19456
      CHANNELS 3 Zrotation Xrotation Yrotation
      JOINT lShin
      {
        OFFSET 0 -36.8199 0.73152
        CHANNELS 3 Zrotation Xrotation Yrotation
        JOINT lFoot
        {
          OFFSET -0.73152 -45.1104 -5.12064
          CHANNELS 3 Zrotation Xrotation Yrotation
          End Site
          {
            OFFSET 1.1221 -3.69964 12.103
          }
        }
      }
    }
  }
}
MOTION
Frames:	6
Frame Time:	0.00833333
-116.264 85.0916 -8.4345 0.0 0.0 0.0 1.92992 -0.00172155 0.0523836 0.532092 0.00507178 0.0921243 3.72092e-14 0.0 2.48481e-16 1.11941e-13 3.18055e-15 7.93586e-16 -0.0 0.0 0.0 -0.0 0.0 0.0 1.89332e-14 -6.40615e-17 2.98177e-16 3.941e-13 -1.17407e-15 4.96962e-15 6.74591e-12 -2.06219e-12 -3.18055e-15 7.71385e-11 1.77458e-12 6.64736e-13 1.81962e-10 -6.26866e-13 1.42807e-12 3.14224e-10 -1.07821e-12 2.46573e-12 1.81968e-10 -6.27762e-13 1.42489e-12 7.73091 5.47488 0.417314 1.81961e-10 -6.2647e-13 1.42807e-12 2.90554 0.965183 0.102902 1.81965e-10 -6.26569e-13 1.43284e-12 10.2786 0.731801 0.0259123 1.81959e-10 -6.26172e-13 1.44397e-12 2.22167 -0.733487 -0.20892 1.87377e-14 -6.05672e-17 -9.93923e-17 3.90538e-13 -1.1865e-15 3.37934e-15 6.73572e-12 1.97433e-12 -1.59028e-14 7.71228e-11 -2.26383e-12 6.9018e-13 1.81913e-10 -6.30876e-13 1.43125e-12 3.14155e-10 -1.09411e-12 2.46493e-12 1.81911e-10 -6.30545e-13 1.44397e-12 -7.73091 5.47488 -0.417314 1.81915e-10 -6.31638e-13 1.43125e-12 -2.90554 0.965183 -0.102902 1.81915e-10 -6.3134e-13 1.43045e-12 -10.2786 0.731801 -0.0259123 1.81914e-10 -6.29352e-13 1.42489e-12 -2.22167 -0.733487 0.20892 -2.03217e-16 0.0 -3.88251e-19 1.95886 -7.26124 -0.191979 0.00412479 7.58542 0.107101 -0.520636 -0.330727 0.0522548 2.03217e-16 0.0 3.88251e-19 0.976071 -1.92613 0.000879979 0.00899161 -2.0786 0.0741022 0.488517 3.99808 -0.136832
-116.175 79.1977 -15.9059 -70.1047 83.6191 -62.1821 -4.22761 6.97851 1.37951 -0.601535 -0.989904 0.00311544 -0.031519 -3.96365 -0.164676 1.50148 -1.22791 -0.232357 -0.0 0.0 0.0 -0.0 0.0 0.0 2.44222e-14 1.56013e-13 1.46052e-14 20.9894 16.8686 -3.07346 -16.3968 -13.7829 14.8627 0.0333044 -4.05218 -0.564373 7.94333e-11 -4.76738e-11 -3.46824e-10 1.41557e-10 -8.36894e-11 -6.0017e-10 7.94374e-11 -4.76731e-11 -3.46829e-10 7.73091 5.47488 0.417314 7.9428e-11 -4.76706e-11 -3.46821e-10 2.90554 0.965183 0.102902 7.94373e-11 -4.76715e-11 -3.4682e-10 10.2786 0.731801 0.0259123 7.94296e-11 -4.76711e-11 -3.46811e-10 2.22167 -0.733487 -0.20892 2.42186e-14 1.56026e-13 1.42904e-14 -18.2239 13.6751 1.1832 13.8998 -11.0092 -14.2057 -0.0229459 -3.37417 0.47128 1.0367e-10 1.94354e-12 1.7771e-10 1.76837e-10 3.28089e-12 3.06522e-10 1.03667e-10 1.94467e-12 1.77725e-10 -7.73091 5.47488 -0.417314 1.03671e-10 1.94436e-12 1.77713e-10 -2.90554 0.965183 -0.102902 1.03669e-10 1.94431e-12 1.77711e-10 -10.2786 0.731801 -0.0259123 1.03673e-10 1.94538e-12 1.77706e-10 -2.22167 -0.733487 0.20892 -2.03217e-16 0.0 -3.88251e-19 -2.60621 -8.21341 -1.3276 42.3916 34.5133 4.36424 -48.2943 -2.87377 -9.73651 2.03217e-16 0.0 3.88251e-19 -4.25925 -12.8326 0.811697 0.493731 13.985 0.189855 0.424896 -2.66173 0.859453
-112.376 78.1368 -17.1588 -60.2381 87.8033 -52.6396 -11.0279 14.3486 2.95439 -1.84044 -2.00867 -0.0672535 -0.0696174 -8.13512 -0.341354 3.05823 -2.50948 -0.491806 -0.0 0.0 0.0 -0.0 0.0 0.0 3.22026e-14 3.46574e-13 3.25945e-14 45.4753 34.5862 -7.13107 -25.7007 -25.2452 33.2046 -0.0190822 -8.31899 -1.16828 -1.74053e-11 -9.78034e-11 -7.32478e-10 -2.08292e-11 -1.71759e-10 -1.26742e-09 -1.74035e-11 -9.78009e-11 -7.32486e-10 7.73091 5.47488 0.417314 -1.74151e-11 -9.77971e-11 -7.32471e-10 2.90554 0.965183 0.102902 -1.74008e-11 -9.77989e-11 -7.32476e-10 10.2786 0.731801 0.0259123 -1.741e-11 -9.77985e-11 -7.32468e-10 2.22167 -0.733487 -0.20892 3.19882e-14 3.46597e-13 3.23677e-14 -38.2975 28.1374 3.00618 22.5702 -20.3171 -30.7669 0.0138086 -6.97465 0.979785 1.78285e-11 7.51317e-12 3.22547e-10 2.65883e-11 1.29675e-11 5.56084e-10 1.78242e-11 7.5152e-12 3.22566e-10 -7.73091 5.47488 -0.417314 1.78288e-11 7.5157e-12 3.22553e-10 -2.90554 0.965183 -0.102902 1.78252e-11 7.51532e-12 3.2255e-10 -10.2786 0.731801 -0.0259123 1.78336e-11 7.51538e-12 3.22546e-10 -2.22167 -0.733487 0.20892 -2.03217e-16 0.0 -3.88251e-19 -7.39472 -8.92782 -2.38841 79.6364 62.9103 16.5314 -99.5263 -5.48485 -18.108 2.03217e-16 0.0 3.88251e-19 -9.33056 -24.582 1.82984 0.957864 31.0129 0.382302 0.592333 -9.56258 1.96682
-108.427 77.2427 -18.3907 -100.321 92.3705 -92.9527 -17.5704 20.8915 4.28529 -2.87807 -2.97984 -0.175141 -0.164185 -11.8906 -0.503653 4.47451 -3.68349 -0.698354 -0.0 0.0 0.0 -0.0 0.0 0.0 3.54004e-14 4.68168e-13 4.32194e-14 70.8951 49.8541 -13.7631 -27.7069 -29.6006 52.0371 -0.144208 -12.1518 -1.72761 -1.25623e-10 -1.41768e-10 -1.04333e-09 -2.03777e-10 -2.48912e-10 -1.80544e-09 -1.25624e-10 -1.41764e-10 -1.04334e-09 7.73091 5.47488 0.417314 -1.25637e-10 -1.41759e-10 -1.04332e-09 2.90554 0.965183 0.102902 -1.25619e-10 -1.41761e-10 -1.04333e-09 10.2786 0.731801 0.0259123 -1.25629e-10 -1.41761e-10 -1.04332e-09 2.22167 -0.733487 -0.20892 3.51804e-14 4.682e-13 4.30699e-14 -56.8295 40.9435 4.5681 25.7529 -24.6591 -47.1937 0.0999071 -10.1198 1.4337 -5.28167e-11 7.09238e-12 5.30267e-10 -9.77991e-11 1.20309e-11 9.14636e-10 -5.28216e-11 7.09509e-12 5.30288e-10 -7.73091 5.47488 -0.417314 -5.28169e-11 7.09636e-12 5.30276e-10 -2.90554 0.965183 -0.102902 -5.28223e-11 7.0956e-12 5.30272e-10 -10.2786 0.731801 -0.0259123 -5.28098e-11 7.09484e-12 5.30269e-10 -2.22167 -0.733487 0.20892 -2.03217e-16 0.0 -3.88251e-19 -11.8512 -10.1044 -3.61725 52.1422 79.3364 82.5534 -146.337 -7.0472 -29.5218 2.03217e-16 0.0 3.88251e-19 -13.6319 -34.6152 2.8832 1.18564 46.111 0.583587 1.01246 -15.962 2.96291
-104.418 76.528 -19.4561 -86.6736 96.0609 -79.3736 -22.5895 25.4269 4.7225 -3.41103 -3.83198 -0.376849 -0.350925 -14.6063 -0.621073 5.56309 -4.58892 -0.771329 -0.0 0.0 0.0 -0.0 0.0 0.0 2.71418e-14 4.17348e-13 3.54334e-14 93.8038 59.3209 -23.7577 -27.5319 -28.313 64.5622 -0.280417 -14.9038 -2.14365 -2.62291e-10 -1.70319e-10 -1.16717e-09 -4.38129e-10 -2.98772e-10 -2.02037e-09 -2.62292e-10 -1.70314e-10 -1.16718e-09 7.73091 5.47488 0.417314 -2.62306e-10 -1.70309e-10 -1.16716e-09 2.90554 0.965183 0.102902 -2.62286e-10 -1.70312e-10 -1.16717e-09 10.2786 0.731801 0.0259123 -2.62297e-10 -1.70312e-10 -1.16716e-09 2.22167 -0.733487 -0.20892 2.69292e-14 4.17385e-13 3.5334e-14 -68.7794 49.761 3.85741 26.4803 -24.7354 -58.8587 0.183907 -12.1293 1.73085 -8.5471e-11 -8.30443e-12 8.95196e-10 -1.57532e-10 -1.54639e-11 1.54567e-09 -8.54762e-11 -8.30164e-12 8.95218e-10 -7.73091 5.47488 -0.417314 -8.54713e-11 -8.29966e-12 8.95205e-10 -2.90554 0.965183 -0.102902 -8.54781e-11 -8.30095e-12 8.95201e-10 -10.2786 0.731801 -0.0259123 -8.54633e-11 -8.30204e-12 8.95199e-10 -2.22167 -0.733487 0.20892 -2.03217e-16 0.0 -3.88251e-19 -15.5086 -12.4339 -5.27714 15.4155 73.2259 134.426 179.531 -6.05867 -48.2811 2.03217e-16 0.0 3.88251e-19 -16.9899 -40.3942 3.5082 1.17377 56.3871 0.569476 1.54376 -21.1292 3.5682
-100.453 75.8469 -20.1738 -79.8713 98.6324 -72.4819 -25.1404 27.1829 3.62322 -3.24616 -4.52583 -0.730444 -0.694484 -15.8787 -0.701082 6.27202 -5.19307 -0.683911 -0.0 0.0 0.0 -0.0 0.0 0.0 -1.18433e-15 -1.14349e-14 -1.18032e-14 106.577 61.1822 -32.5074 -27.4633 -26.6258 68.2427 -0.352501 -16.1484 -2.33628 -5.0776e-10 -1.87525e-10 -9.80686e-10 -8.64034e-10 -3.27929e-10 -1.69979e-09 -5.0776e-10 -1.87522e-10 -9.80693e-10 7.73091 5.47488 0.417314 -5.07774e-10 -1.87517e-10 -9.80673e-10 2.90554 0.965183 0.102902 -5.07754e-10 -1.8752e-10 -9.80685e-10 10.2786 0.731801 0.0259123 -5.07766e-10 -1.87519e-10 -9.8068e-10 2.22167 -0.733487 -0.20892 -1.36521e-15 -1.14e-14 -1.18929e-14 -69.4356 52.9479 -1.81067 26.6922 -24.0935 -63.3616 0.21574 -12.6725 1.81305 -7.27633e-11 -5.88624e-11 1.66727e-09 -1.41581e-10 -1.05157e-10 2.88184e-09 -7.27681e-11 -5.88605e-11 1.66729e-09 -7.73091 5.47488 -0.417314 -7.2763e-11 -5.88577e-11 1.66728e-09 -2.90554 0.965183 -0.102902 -7.27705e-11 -5.88599e-11 1.66728e-09 -10.2786 0.731801 -0.0259123 -7.27563e-11 -5.88606e-11 1.66727e-09 -2.22167 -0.733487 0.20892 -2.03217e-16 0.0 -3.88251e-19 -18.377 -16.4191 -7.82848 3.88203 76.8852 126.562 165.663 -1.33632 -80.2979 2.03217e-16 0.0 3.88251e-19 -19.7758 -40.3037 3.06901 1.09327 60.0559 -0.027792 1.99461 -24.7354 3.53576
